<svg width="260" height="260" viewBox="0 0 260 260" fill="none" xmlns="http://www.w3.org/2000/svg">
<g opacity="0.2">
<mask id="path-1-inside-1_485_2768" fill="white">
<path d="M260 130C260 201.797 201.797 260 130 260C58.203 260 0 201.797 0 130C0 58.203 58.203 0 130 0C201.797 0 260 58.203 260 130ZM16.9 130C16.9 192.463 67.5366 243.1 130 243.1C192.463 243.1 243.1 192.463 243.1 130C243.1 67.5366 192.463 16.9 130 16.9C67.5366 16.9 16.9 67.5366 16.9 130Z"/>
</mask>
<path d="M260 130C260 201.797 201.797 260 130 260C58.203 260 0 201.797 0 130C0 58.203 58.203 0 130 0C201.797 0 260 58.203 260 130ZM16.9 130C16.9 192.463 67.5366 243.1 130 243.1C192.463 243.1 243.1 192.463 243.1 130C243.1 67.5366 192.463 16.9 130 16.9C67.5366 16.9 16.9 67.5366 16.9 130Z" stroke="url(#paint0_linear_485_2768)" stroke-width="32" stroke-linecap="round" mask="url(#path-1-inside-1_485_2768)"/>
</g>
<mask id="path-2-inside-2_485_2768" fill="white">
<path d="M260 130C260 201.797 201.797 260 130 260C58.203 260 0 201.797 0 130C0 58.203 58.203 0 130 0C201.797 0 260 58.203 260 130ZM16.9 130C16.9 192.463 67.5366 243.1 130 243.1C192.463 243.1 243.1 192.463 243.1 130C243.1 67.5366 192.463 16.9 130 16.9C67.5366 16.9 16.9 67.5366 16.9 130Z"/>
</mask>
<path d="M260 130C260 201.797 201.797 260 130 260C58.203 260 0 201.797 0 130C0 58.203 58.203 0 130 0C201.797 0 260 58.203 260 130ZM16.9 130C16.9 192.463 67.5366 243.1 130 243.1C192.463 243.1 243.1 192.463 243.1 130C243.1 67.5366 192.463 16.9 130 16.9C67.5366 16.9 16.9 67.5366 16.9 130Z" stroke="url(#paint1_linear_485_2768)" stroke-width="32" stroke-linecap="round" mask="url(#path-2-inside-2_485_2768)"/>
<path d="M53.6976 152V105.602L54.6596 100.2H63.3916L63.3176 152H53.6976ZM42.7456 116.554V107.378C43.9789 107.477 45.3109 107.181 46.7416 106.49C48.1723 105.75 49.5783 104.813 50.9596 103.678C52.3903 102.494 53.6236 101.31 54.6596 100.126L61.0976 106.416C59.3216 108.389 57.447 110.19 55.4736 111.818C53.5003 113.397 51.453 114.63 49.3316 115.518C47.2596 116.406 45.0643 116.751 42.7456 116.554ZM92.9824 152.888C88.789 152.888 85.089 151.753 81.8824 149.484C78.6757 147.165 76.1597 144.008 74.3344 140.012C72.509 135.967 71.5964 131.329 71.5964 126.1C71.5964 120.871 72.509 116.258 74.3344 112.262C76.1597 108.217 78.651 105.059 81.8084 102.79C85.015 100.471 88.715 99.312 92.9084 99.312C97.1017 99.312 100.802 100.471 104.008 102.79C107.264 105.059 109.805 108.217 111.63 112.262C113.456 116.258 114.368 120.871 114.368 126.1C114.368 131.329 113.456 135.967 111.63 140.012C109.805 144.008 107.289 147.165 104.082 149.484C100.876 151.753 97.1757 152.888 92.9824 152.888ZM92.9824 143.712C95.2024 143.712 97.1757 142.972 98.9024 141.492C100.678 139.963 102.06 137.891 103.046 135.276C104.033 132.612 104.526 129.553 104.526 126.1C104.526 122.647 104.033 119.588 103.046 116.924C102.06 114.26 100.678 112.188 98.9024 110.708C97.1757 109.179 95.1777 108.414 92.9084 108.414C90.6884 108.414 88.715 109.179 86.9884 110.708C85.2617 112.188 83.905 114.26 82.9184 116.924C81.981 119.588 81.5124 122.647 81.5124 126.1C81.5124 129.553 81.981 132.612 82.9184 135.276C83.905 137.891 85.2617 139.963 86.9884 141.492C88.7644 142.972 90.7624 143.712 92.9824 143.712ZM139.487 152.888C135.293 152.888 131.593 151.753 128.387 149.484C125.18 147.165 122.664 144.008 120.839 140.012C119.013 135.967 118.101 131.329 118.101 126.1C118.101 120.871 119.013 116.258 120.839 112.262C122.664 108.217 125.155 105.059 128.313 102.79C131.519 100.471 135.219 99.312 139.413 99.312C143.606 99.312 147.306 100.471 150.513 102.79C153.769 105.059 156.309 108.217 158.135 112.262C159.96 116.258 160.873 120.871 160.873 126.1C160.873 131.329 159.96 135.967 158.135 140.012C156.309 144.008 153.793 147.165 150.587 149.484C147.38 151.753 143.68 152.888 139.487 152.888ZM139.487 143.712C141.707 143.712 143.68 142.972 145.407 141.492C147.183 139.963 148.564 137.891 149.551 135.276C150.537 132.612 151.031 129.553 151.031 126.1C151.031 122.647 150.537 119.588 149.551 116.924C148.564 114.26 147.183 112.188 145.407 110.708C143.68 109.179 141.682 108.414 139.413 108.414C137.193 108.414 135.219 109.179 133.493 110.708C131.766 112.188 130.409 114.26 129.423 116.924C128.485 119.588 128.017 122.647 128.017 126.1C128.017 129.553 128.485 132.612 129.423 135.276C130.409 137.891 131.766 139.963 133.493 141.492C135.269 142.972 137.267 143.712 139.487 143.712ZM168.675 152L205.453 100.2H215.221L178.221 152H168.675ZM207.081 153.11C204.762 153.11 202.69 152.567 200.865 151.482C199.04 150.397 197.609 148.892 196.573 146.968C195.586 144.995 195.093 142.775 195.093 140.308C195.093 137.792 195.586 135.572 196.573 133.648C197.609 131.724 199.04 130.219 200.865 129.134C202.69 128.049 204.762 127.506 207.081 127.506C209.449 127.506 211.521 128.073 213.297 129.208C215.122 130.293 216.553 131.798 217.589 133.722C218.625 135.597 219.143 137.792 219.143 140.308C219.143 142.775 218.625 144.995 217.589 146.968C216.553 148.892 215.122 150.397 213.297 151.482C211.521 152.567 209.449 153.11 207.081 153.11ZM207.081 146.154C208.709 146.154 210.041 145.611 211.077 144.526C212.113 143.391 212.631 141.985 212.631 140.308C212.631 138.68 212.113 137.323 211.077 136.238C210.041 135.103 208.709 134.536 207.081 134.536C205.453 134.536 204.121 135.103 203.085 136.238C202.098 137.323 201.605 138.68 201.605 140.308C201.605 141.985 202.098 143.391 203.085 144.526C204.121 145.611 205.453 146.154 207.081 146.154ZM177.111 124.62C174.743 124.62 172.646 124.077 170.821 122.992C169.045 121.907 167.639 120.402 166.603 118.478C165.567 116.505 165.049 114.285 165.049 111.818C165.049 109.302 165.542 107.082 166.529 105.158C167.565 103.234 168.996 101.729 170.821 100.644C172.646 99.5587 174.743 99.016 177.111 99.016C179.479 99.016 181.551 99.5833 183.327 100.718C185.152 101.803 186.558 103.308 187.545 105.232C188.581 107.107 189.099 109.302 189.099 111.818C189.099 114.285 188.581 116.505 187.545 118.478C186.558 120.402 185.152 121.907 183.327 122.992C181.502 124.077 179.43 124.62 177.111 124.62ZM177.037 117.664C178.714 117.664 180.046 117.121 181.033 116.036C182.069 114.901 182.587 113.495 182.587 111.818C182.587 110.19 182.069 108.833 181.033 107.748C180.046 106.613 178.739 106.046 177.111 106.046C175.483 106.046 174.151 106.613 173.115 107.748C172.079 108.833 171.561 110.19 171.561 111.818C171.561 113.495 172.079 114.901 173.115 116.036C174.151 117.121 175.458 117.664 177.037 117.664Z" fill="#FF4FBB"/>
<defs>
<linearGradient id="paint0_linear_485_2768" x1="221.377" y1="34.8551" x2="43.8043" y2="226.558" gradientUnits="userSpaceOnUse">
<stop stop-color="#FF00F5"/>
<stop offset="1" stop-color="#FF8D8D"/>
</linearGradient>
<linearGradient id="paint1_linear_485_2768" x1="221.377" y1="34.8551" x2="43.8043" y2="226.558" gradientUnits="userSpaceOnUse">
<stop stop-color="#FF00F5"/>
<stop offset="1" stop-color="#FF8D8D"/>
</linearGradient>
</defs>
</svg>
